<svg width="140" height="140" viewBox="0 0 140 140" fill="none" xmlns="http://www.w3.org/2000/svg">
<rect width="140" height="140" rx="31" fill="url(#paint0_linear_1_17)"/>
<rect width="140" height="140" rx="31" fill="url(#paint1_linear_1_17)" fill-opacity="0.2"/>
<path d="M69.5 20C90.25 20 107 36.75 107 57.5C107 82.5 69.5 120 69.5 120C69.5 120 32 82.5 32 57.5C32 36.75 48.75 20 69.5 20ZM65.0869 54.2041L55 55.4316L62.5654 62.1816L60.6738 72L69.5 67.0908L78.3262 72L76.4346 62.1816L84 55.4316L73.9131 54.2041L69.5 45L65.0869 54.2041Z" fill="white"/>
<defs>
<linearGradient id="paint0_linear_1_17" x1="0" y1="0" x2="140" y2="140" gradientUnits="userSpaceOnUse">
<stop stop-color="#3B81F6"/>
<stop offset="1" stop-color="#2766EC"/>
</linearGradient>
<linearGradient id="paint1_linear_1_17" x1="0" y1="0" x2="140" y2="140" gradientUnits="userSpaceOnUse">
<stop stop-color="white" stop-opacity="0.3"/>
<stop offset="1" stop-opacity="0"/>
</linearGradient>
</defs>
</svg>
